<svg id="svg" version="1.1" xmlns="http://www.w3.org/2000/svg" xmlns:xlink="http://www.w3.org/1999/xlink" width="400" height="400" viewBox="0, 0, 400,400"><g id="svgg"><path id="path0" d="M191.500 49.201 C 145.647 51.232,108.720 78.251,94.782 119.970 C 89.834 134.778,89.349 139.485,89.340 172.725 L 89.333 198.284 90.621 197.734 L 91.908 197.184 92.121 193.707 C 92.238 191.794,92.335 180.465,92.337 168.531 C 92.340 146.305,92.497 142.762,93.800 135.500 C 101.426 93.010,135.768 59.564,178.170 53.333 C 190.091 51.581,209.928 51.584,221.874 53.339 C 267.380 60.027,303.233 98.076,307.303 144.000 C 307.490 146.108,307.711 161.539,307.796 178.291 L 307.949 208.749 308.956 209.791 C 309.510 210.364,310.112 211.208,310.294 211.667 C 310.876 213.134,310.759 148.512,310.169 142.833 C 304.980 92.856,265.842 54.204,215.833 49.667 C 211.914 49.311,195.921 49.005,191.500 49.201 M187.167 77.631 C 179.688 79.494,173.048 85.915,171.816 92.473 L 171.623 93.500 168.562 93.540 C 158.866 93.667,152.126 101.178,152.749 111.162 L 152.924 113.962 150.545 115.106 C 144.545 117.991,141.993 121.816,142.005 127.906 C 142.018 134.847,145.220 140.387,150.660 142.884 L 152.613 143.781 151.214 144.849 C 147.029 148.044,146.697 151.726,150.030 157.950 C 152.208 162.018,154.415 164.505,157.069 165.882 C 157.543 166.128,156.693 167.141,151.983 171.949 C 144.096 180.000,143.773 181.369,150.243 179.340 C 153.213 178.409,159.693 177.219,159.980 177.552 C 160.114 177.707,160.561 179.028,160.974 180.488 C 162.518 185.949,164.580 189.333,166.363 189.333 C 166.900 189.333,167.348 189.147,167.365 188.917 C 167.383 188.688,167.432 187.450,167.475 186.167 C 167.582 182.993,168.467 180.899,171.850 175.818 C 174.925 171.199,175.880 168.804,175.528 166.600 C 175.240 164.797,174.546 164.184,189.945 179.328 C 202.927 192.095,204.030 193.084,204.917 192.752 C 205.836 192.407,205.095 190.908,199.387 181.566 C 196.117 176.213,193.258 171.489,193.034 171.067 L 192.626 170.301 196.989 170.401 C 201.296 170.499,201.968 170.351,201.995 169.300 C 201.999 169.152,192.238 156.542,191.472 155.705 C 191.225 155.435,179.804 155.465,179.250 155.737 C 178.207 156.249,178.625 157.143,181.011 159.509 L 183.355 161.833 178.955 162.000 C 175.832 162.118,174.514 162.289,174.415 162.587 C 174.281 162.989,170.000 157.568,170.000 156.998 C 170.000 156.613,175.129 155.450,180.220 154.681 C 194.990 152.449,212.655 153.034,226.100 156.201 C 230.679 157.279,230.492 156.904,228.005 160.009 C 226.908 161.379,225.734 163.080,225.396 163.790 L 224.782 165.080 221.205 160.542 C 219.239 158.046,217.375 155.885,217.065 155.740 C 216.616 155.530,207.816 155.445,205.250 155.626 C 203.994 155.714,204.650 157.134,207.075 159.575 L 209.483 162.000 205.265 162.000 C 199.477 162.000,198.749 162.816,201.953 165.716 C 202.804 166.485,209.212 172.770,216.193 179.682 C 223.174 186.594,229.201 192.417,229.586 192.623 C 231.300 193.541,231.878 191.959,230.547 189.994 C 229.395 188.295,218.667 170.687,218.667 170.496 C 218.667 170.267,222.983 170.369,224.052 170.623 C 226.726 171.259,232.949 183.043,232.587 186.785 C 232.373 188.990,232.518 189.333,233.665 189.333 C 235.417 189.333,237.319 186.195,239.170 180.250 C 239.670 178.646,240.230 177.333,240.414 177.333 C 241.231 177.333,248.975 179.020,250.292 179.485 C 256.223 181.579,255.621 179.608,247.959 171.850 L 242.346 166.167 243.288 165.770 C 245.004 165.048,248.913 160.474,250.328 157.534 C 253.306 151.347,252.894 147.948,248.789 144.817 L 247.429 143.779 249.689 142.726 C 260.930 137.489,261.050 121.019,249.890 115.304 L 247.153 113.903 247.280 110.495 C 247.653 100.412,239.118 92.090,229.833 93.483 C 228.418 93.695,228.412 93.691,228.192 92.520 C 226.058 81.141,208.087 72.452,200.634 79.196 C 200.134 79.649,199.952 79.614,198.823 78.848 C 196.063 76.975,191.648 76.514,187.167 77.631 M196.289 80.172 C 199.862 81.836,201.951 84.250,201.471 86.163 C 201.033 87.908,198.167 88.289,198.167 86.602 C 198.167 84.787,196.225 84.488,195.786 86.236 C 194.725 90.464,202.306 91.248,203.704 87.054 C 203.776 86.839,204.732 86.551,205.829 86.414 C 209.046 86.012,208.770 84.118,205.511 84.231 C 203.620 84.297,203.029 83.899,204.478 83.535 C 206.467 83.036,205.863 81.170,203.804 81.452 C 201.709 81.739,201.673 81.122,203.727 80.165 C 210.000 77.245,220.435 81.559,224.087 88.583 C 225.578 91.451,226.028 93.033,224.722 90.817 C 223.492 88.731,222.893 88.217,222.016 88.495 C 221.142 88.772,221.140 89.792,222.011 91.015 C 222.877 92.231,224.452 95.659,224.241 95.870 C 224.153 95.958,223.675 95.338,223.180 94.492 C 221.820 92.172,218.069 88.333,217.162 88.333 C 215.419 88.333,215.806 89.726,218.183 92.000 C 219.647 93.401,222.333 97.097,222.333 97.711 C 222.333 98.550,220.674 99.081,219.814 98.518 C 219.344 98.210,218.633 98.006,218.234 98.063 C 216.306 98.338,218.044 101.000,220.152 101.000 C 221.557 101.000,221.564 101.040,220.499 103.140 C 219.334 105.435,219.519 106.667,221.030 106.667 C 221.409 106.667,221.664 107.046,221.811 107.829 C 222.074 109.231,222.971 109.838,223.841 109.202 C 224.214 108.930,224.360 108.550,224.226 108.201 C 224.055 107.755,224.124 107.703,224.559 107.946 C 224.860 108.115,225.270 108.759,225.470 109.377 C 226.018 111.072,227.500 111.019,227.500 109.304 C 227.500 108.333,227.766 107.853,228.917 106.747 C 230.451 105.272,230.612 104.856,229.817 104.411 C 229.389 104.171,229.445 104.056,230.150 103.735 C 232.096 102.848,231.073 101.907,228.493 102.210 C 226.422 102.454,225.995 102.911,226.667 104.167 C 227.604 105.918,225.938 106.687,224.521 105.157 C 222.295 102.756,223.854 98.147,227.461 96.467 C 235.575 92.689,246.707 101.955,245.150 111.191 L 244.873 112.833 244.648 110.333 C 244.257 106.010,242.195 102.229,240.567 102.854 C 239.760 103.163,239.856 103.755,241.058 105.884 C 241.971 107.503,242.127 108.128,242.198 110.463 C 242.244 111.950,242.209 112.765,242.121 112.274 C 241.764 110.287,240.104 110.270,239.935 112.253 C 239.776 114.119,239.176 113.870,238.736 111.755 C 238.244 109.394,237.296 107.783,236.084 107.248 C 235.580 107.026,234.965 106.570,234.718 106.236 C 234.465 105.895,233.955 105.673,233.551 105.731 C 232.584 105.869,232.605 107.067,233.583 107.496 C 233.996 107.677,234.333 107.968,234.333 108.144 C 234.333 108.320,234.700 108.847,235.149 109.315 C 236.034 110.239,237.117 113.773,236.811 114.737 C 236.441 115.904,235.667 115.409,235.667 114.005 C 235.667 112.387,234.207 110.480,233.249 110.848 C 232.450 111.154,232.518 112.029,233.500 114.064 C 234.508 116.153,234.537 116.955,233.667 118.580 C 233.300 119.264,232.998 120.051,232.996 120.328 C 232.994 120.606,232.319 121.797,231.496 122.976 C 229.744 125.485,229.491 127.000,230.825 127.000 C 231.400 127.000,231.803 126.704,232.156 126.021 C 232.964 124.457,233.377 124.497,232.664 126.070 C 231.790 127.995,231.803 129.226,232.700 129.511 C 233.566 129.786,233.861 129.504,234.433 127.849 C 234.877 126.568,234.911 126.548,236.602 126.523 C 239.386 126.483,241.216 123.700,239.678 121.847 C 238.925 120.940,237.837 121.330,237.812 122.515 C 237.756 125.157,235.000 124.786,235.000 122.137 C 235.000 116.791,241.188 114.018,247.333 116.609 C 253.007 119.001,255.622 122.415,255.839 127.716 C 255.902 129.247,255.887 130.050,255.805 129.500 C 255.334 126.318,255.322 126.288,254.564 126.396 C 253.485 126.550,253.231 132.000,254.303 132.000 C 254.668 132.000,255.120 131.737,255.307 131.417 C 255.855 130.475,255.717 131.388,254.990 133.519 C 254.358 135.367,252.130 138.908,251.804 138.581 C 251.724 138.501,251.885 137.892,252.162 137.229 C 252.823 135.648,252.823 133.706,252.162 133.452 C 251.425 133.169,250.830 133.807,250.356 135.389 C 249.810 137.212,249.206 138.161,247.371 140.083 C 245.282 142.270,245.066 142.064,246.797 139.535 C 250.022 134.825,250.777 125.319,247.894 125.730 C 247.191 125.830,247.167 125.971,247.167 130.000 L 247.167 134.167 245.902 136.500 C 244.452 139.175,242.534 141.497,242.030 141.185 C 241.825 141.058,242.166 140.306,242.881 139.311 C 245.128 136.184,246.104 130.693,244.719 128.981 C 243.556 127.546,243.078 128.288,242.949 131.727 C 242.822 135.114,242.224 136.777,240.332 139.000 L 239.340 140.167 240.309 138.333 C 242.146 134.860,242.755 131.333,241.518 131.333 C 240.878 131.333,240.366 132.078,240.121 133.365 C 239.852 134.778,238.209 138.498,237.720 138.800 C 237.516 138.927,237.579 138.494,237.864 137.812 C 238.624 135.993,238.384 134.500,237.333 134.500 C 236.618 134.500,236.418 134.756,235.919 136.315 C 235.238 138.441,234.539 139.390,234.869 137.740 C 235.026 136.952,234.962 136.661,234.625 136.646 C 234.373 136.634,234.504 136.489,234.917 136.323 C 235.810 135.964,235.990 134.103,235.162 133.786 C 234.409 133.497,233.617 134.330,233.715 135.307 C 233.849 136.638,232.674 138.250,232.121 137.494 C 231.819 137.081,231.432 136.973,230.766 137.114 C 229.991 137.279,221.173 136.332,218.357 135.782 C 217.595 135.633,217.632 135.573,218.959 134.782 C 220.023 134.148,220.346 133.762,220.269 133.223 C 220.102 132.053,219.097 132.184,215.879 133.793 L 212.833 135.316 206.833 134.992 C 202.779 134.773,198.721 134.783,194.319 135.023 C 187.150 135.414,186.522 135.311,182.797 133.128 C 181.100 132.134,179.880 132.173,179.730 133.228 C 179.651 133.782,179.951 134.142,180.977 134.728 C 182.658 135.688,182.684 136.000,181.083 136.002 C 180.396 136.002,177.808 136.303,175.333 136.671 C 172.731 137.057,170.236 137.251,169.417 137.131 C 168.250 136.961,168.000 137.019,168.000 137.462 C 168.000 138.207,167.703 138.136,166.816 137.180 C 166.355 136.682,166.122 136.105,166.224 135.714 C 166.585 134.336,164.940 132.900,164.454 134.167 C 164.148 134.964,164.629 136.333,165.214 136.333 C 165.643 136.333,165.669 136.428,165.347 136.817 C 165.117 137.094,165.044 137.612,165.175 138.026 C 165.329 138.511,165.284 138.676,165.040 138.525 C 164.840 138.401,164.435 137.472,164.141 136.461 C 163.237 133.351,161.194 133.757,161.913 136.904 L 162.277 138.500 161.638 137.712 C 161.286 137.279,160.615 135.666,160.146 134.129 C 159.328 131.450,158.885 130.915,158.115 131.685 C 157.559 132.241,158.232 135.208,159.510 137.833 C 160.529 139.926,160.560 140.064,159.804 139.167 C 157.875 136.875,157.196 135.028,157.124 131.879 C 157.056 128.849,156.775 128.093,155.851 128.447 C 153.698 129.273,154.706 136.200,157.515 139.882 C 158.066 140.605,158.214 141.035,157.964 141.189 C 157.760 141.315,157.496 141.275,157.379 141.100 C 157.262 140.924,156.608 140.107,155.926 139.284 C 153.475 136.328,152.833 134.366,152.833 129.833 C 152.833 125.976,152.807 125.830,152.106 125.730 C 148.930 125.278,150.190 135.693,153.898 140.556 C 155.334 142.438,154.535 142.148,152.674 140.111 C 151.712 139.059,150.626 137.516,150.260 136.683 C 148.969 133.746,148.807 133.500,148.154 133.500 C 147.278 133.500,147.104 135.275,147.807 137.032 C 148.949 139.885,146.665 137.319,145.405 134.333 C 144.628 132.493,144.139 130.529,144.679 131.417 C 145.678 133.061,146.365 132.121,146.263 129.250 C 146.137 125.667,144.973 124.926,144.401 128.064 C 144.109 129.668,144.076 129.718,144.040 128.600 C 143.742 119.316,156.121 111.788,162.480 117.385 C 165.449 119.999,166.124 123.622,163.752 124.217 C 162.673 124.488,162.164 123.890,162.285 122.492 C 162.392 121.248,161.318 120.815,160.400 121.733 C 158.643 123.491,161.190 126.994,163.904 126.553 C 164.984 126.378,165.069 126.439,165.659 127.814 C 166.356 129.441,166.705 129.759,167.470 129.465 C 168.148 129.205,168.153 127.782,167.483 126.177 C 167.183 125.459,167.122 125.036,167.337 125.169 C 167.541 125.295,167.845 125.759,168.012 126.199 C 168.218 126.740,168.579 127.000,169.123 127.000 C 170.742 127.000,170.533 125.519,168.544 122.914 C 167.887 122.053,167.250 120.933,167.128 120.425 C 167.005 119.916,166.627 118.943,166.286 118.263 C 165.457 116.607,165.498 116.094,166.646 113.819 C 167.645 111.838,167.598 110.667,166.518 110.667 C 165.608 110.667,164.333 112.643,164.333 114.053 C 164.333 115.802,163.542 115.617,163.393 113.834 C 163.268 112.337,164.076 110.003,165.012 109.156 C 165.372 108.830,165.667 108.397,165.667 108.194 C 165.667 107.991,166.004 107.677,166.417 107.496 C 166.829 107.315,167.215 106.829,167.273 106.417 C 167.415 105.420,165.866 105.356,165.256 106.333 C 165.027 106.700,164.636 107.000,164.387 107.000 C 163.414 107.000,162.050 109.016,161.451 111.342 C 160.827 113.767,160.333 114.362,160.333 112.690 C 160.333 110.467,158.478 110.071,157.882 112.167 C 157.778 112.533,157.742 111.739,157.803 110.402 C 157.891 108.461,158.123 107.571,158.957 105.981 C 160.141 103.721,160.230 103.160,159.453 102.861 C 157.484 102.106,154.965 107.805,155.431 111.962 C 155.645 113.869,155.111 113.017,154.835 111.010 C 153.282 99.722,169.660 90.196,175.562 98.953 C 177.532 101.878,176.211 106.641,173.654 105.829 C 172.914 105.595,172.818 104.949,173.386 104.040 C 173.928 103.172,173.498 102.269,172.585 102.359 C 172.171 102.399,171.533 102.321,171.167 102.184 C 169.899 101.712,169.714 101.708,169.352 102.144 C 168.873 102.722,169.229 103.589,170.054 103.850 C 170.649 104.039,170.661 104.098,170.172 104.455 C 169.625 104.855,169.775 106.000,170.374 106.000 C 171.117 106.000,172.612 108.179,172.445 109.019 C 172.340 109.549,172.467 110.030,172.783 110.292 C 173.514 110.898,174.596 110.227,174.728 109.086 C 174.857 107.969,176.000 107.570,176.000 108.642 C 176.000 109.155,176.213 109.333,176.822 109.333 C 177.734 109.333,178.333 108.496,178.333 107.220 C 178.333 106.587,178.474 106.433,178.940 106.554 C 180.495 106.961,180.601 104.869,179.165 102.112 L 178.672 101.167 180.056 100.971 C 182.153 100.673,183.442 98.772,182.052 98.028 C 181.607 97.790,181.232 97.842,180.697 98.217 C 179.243 99.235,179.672 98.390,181.404 96.825 C 182.373 95.948,184.264 94.728,185.606 94.113 C 187.688 93.160,188.030 92.886,187.940 92.248 C 187.706 90.605,184.480 91.575,180.721 94.419 C 178.174 96.346,178.691 95.353,182.098 91.775 C 184.172 89.597,184.452 88.589,183.038 88.388 C 182.044 88.247,179.916 90.247,177.632 93.469 C 176.734 94.735,176.003 95.560,176.007 95.302 C 176.017 94.653,177.179 92.153,178.018 90.975 C 178.893 89.746,178.768 88.538,177.751 88.394 C 177.160 88.310,176.778 88.646,175.949 89.980 C 174.527 92.268,174.358 91.858,175.616 89.171 C 179.036 81.861,189.827 77.165,196.289 80.172 M188.653 81.183 C 188.300 81.609,188.316 81.792,188.746 82.222 C 189.465 82.941,191.125 82.395,191.273 81.391 C 191.405 80.495,189.359 80.333,188.653 81.183 M208.777 81.194 C 208.375 82.240,210.203 83.058,211.333 82.338 C 212.103 81.847,211.309 80.854,210.047 80.729 C 209.297 80.654,208.933 80.787,208.777 81.194 M183.573 82.319 C 181.747 83.479,181.355 84.165,182.096 84.905 C 182.869 85.679,187.167 83.456,187.167 82.282 C 187.167 81.054,185.538 81.071,183.573 82.319 M212.889 81.556 C 212.164 82.280,212.797 83.057,215.027 84.180 C 217.387 85.369,218.333 85.370,218.333 84.184 C 218.333 82.816,213.811 80.633,212.889 81.556 M179.045 86.119 C 178.185 87.034,178.182 88.433,179.039 88.596 C 179.876 88.755,181.719 87.036,181.601 86.206 C 181.450 85.152,180.000 85.103,179.045 86.119 M185.583 86.016 C 184.060 86.828,183.763 88.333,185.126 88.333 C 186.832 88.333,188.384 87.381,188.271 86.403 C 188.138 85.251,187.256 85.124,185.583 86.016 M189.556 85.556 C 189.137 85.974,189.333 86.929,189.880 87.139 C 190.628 87.426,192.030 86.466,191.787 85.833 C 191.596 85.335,189.977 85.134,189.556 85.556 M211.901 85.544 C 210.846 86.598,212.696 88.333,214.874 88.333 C 215.947 88.333,215.977 86.878,214.917 86.207 C 213.988 85.619,212.215 85.229,211.901 85.544 M218.556 85.556 C 218.055 86.057,218.394 86.992,219.378 87.820 C 220.601 88.849,221.455 88.809,221.611 87.714 C 221.811 86.304,219.464 84.647,218.556 85.556 M189.336 90.430 C 187.068 91.577,188.567 92.712,191.667 92.195 C 193.678 91.859,193.841 91.768,193.939 90.917 C 194.060 89.867,191.074 89.551,189.336 90.430 M210.000 90.833 C 209.442 91.506,210.114 92.333,211.218 92.333 C 212.264 92.333,212.637 91.380,211.824 90.785 C 211.024 90.200,210.514 90.214,210.000 90.833 M213.222 91.222 C 212.669 91.775,213.106 92.604,214.307 93.278 C 215.026 93.682,216.531 94.924,217.651 96.038 C 218.999 97.377,219.864 97.996,220.205 97.865 C 220.489 97.756,220.784 97.667,220.861 97.667 C 221.677 97.667,220.670 95.825,218.917 94.109 C 216.253 91.502,214.056 90.388,213.222 91.222 M205.102 97.215 C 204.878 97.798,205.771 98.667,206.594 98.667 C 206.850 98.667,208.409 99.134,210.058 99.705 C 213.130 100.768,213.854 100.720,213.613 99.470 C 213.347 98.087,205.559 96.024,205.102 97.215 M193.384 97.286 C 192.770 97.687,193.036 98.799,193.780 98.942 C 195.021 99.181,196.049 98.687,195.938 97.905 C 195.824 97.104,194.248 96.722,193.384 97.286 M167.051 97.955 C 166.230 98.487,166.746 99.500,167.838 99.500 C 168.677 99.500,168.833 99.370,168.833 98.667 C 168.833 97.775,167.901 97.403,167.051 97.955 M231.417 97.881 C 230.824 98.129,230.900 99.224,231.527 99.464 C 232.782 99.946,233.381 99.700,233.272 98.750 C 233.167 97.838,232.390 97.474,231.417 97.881 M163.947 98.321 C 161.535 99.060,159.281 101.300,160.035 102.209 C 160.566 102.849,160.704 102.809,162.362 101.541 C 163.171 100.922,164.283 100.272,164.833 100.097 C 165.579 99.859,165.833 99.574,165.833 98.977 C 165.833 98.089,165.305 97.905,163.947 98.321 M188.667 98.411 C 188.208 98.621,187.196 99.081,186.417 99.433 C 185.324 99.927,185.000 100.256,185.000 100.870 C 185.000 101.837,185.863 101.927,187.416 101.124 C 187.993 100.825,189.224 100.323,190.150 100.009 C 191.383 99.590,191.833 99.266,191.833 98.802 C 191.833 98.034,189.986 97.806,188.667 98.411 M234.136 98.459 C 233.829 99.259,234.223 100.000,234.956 100.000 C 235.310 100.000,236.398 100.600,237.374 101.333 C 239.313 102.790,239.298 102.784,239.952 102.370 C 240.725 101.880,240.068 100.794,238.238 99.538 C 236.151 98.105,234.444 97.656,234.136 98.459 M201.083 99.873 C 200.426 100.161,200.564 101.663,201.250 101.688 C 201.693 101.704,201.651 101.782,201.076 102.013 C 199.286 102.732,199.959 104.333,202.051 104.333 C 203.506 104.333,204.033 103.664,203.390 102.634 C 203.036 102.067,203.136 102.027,204.754 102.094 C 206.772 102.178,207.570 100.994,205.918 100.366 C 204.881 99.971,201.618 99.639,201.083 99.873 M197.038 100.303 C 196.733 100.496,196.650 100.889,196.795 101.464 C 196.982 102.210,196.906 102.333,196.256 102.328 C 195.709 102.325,195.624 102.245,195.949 102.038 C 198.132 100.655,194.129 100.098,189.887 101.195 C 184.495 102.589,178.538 106.667,181.893 106.667 C 182.765 106.667,182.751 106.700,181.261 108.128 C 179.558 109.759,179.077 110.790,179.680 111.516 C 180.311 112.277,180.895 112.093,181.857 110.832 C 183.014 109.315,186.688 106.887,188.935 106.155 C 191.305 105.382,191.469 103.788,189.167 103.895 C 187.709 103.963,188.238 103.623,190.283 103.176 C 191.270 102.961,191.377 103.004,191.207 103.550 C 190.728 105.090,193.032 105.264,198.917 104.132 C 199.686 103.984,200.058 102.333,199.322 102.333 C 199.091 102.333,199.099 102.105,199.345 101.645 C 200.008 100.405,198.376 99.455,197.038 100.303 M214.333 101.017 C 214.333 101.738,216.397 102.873,217.015 102.491 C 217.459 102.216,217.413 101.213,216.933 100.733 C 216.221 100.021,214.333 100.227,214.333 101.017 M165.793 101.817 C 165.492 102.601,165.962 103.000,167.186 103.000 C 168.188 103.000,168.333 102.894,168.333 102.167 C 168.333 101.192,166.149 100.892,165.793 101.817 M209.000 102.140 C 209.000 102.777,209.228 103.000,210.083 103.197 C 211.135 103.439,211.142 103.452,210.333 103.655 C 208.835 104.030,209.165 105.734,210.803 106.074 C 212.768 106.482,215.627 108.252,217.567 110.260 C 218.918 111.659,219.451 112.007,219.984 111.839 C 221.265 111.432,220.505 109.416,218.431 107.721 L 217.167 106.689 218.083 106.678 C 220.660 106.646,218.479 104.554,213.667 102.440 C 210.555 101.073,209.000 100.973,209.000 102.140 M231.905 101.540 C 231.152 102.292,231.692 103.038,232.917 102.937 C 233.910 102.855,234.167 102.696,234.167 102.167 C 234.167 101.485,232.438 101.006,231.905 101.540 M162.032 102.524 C 160.695 103.649,158.577 107.923,158.723 109.202 C 158.930 111.018,160.230 110.504,161.149 108.243 C 162.067 105.985,163.402 104.129,164.316 103.839 C 165.014 103.617,165.508 102.553,165.169 102.003 C 164.779 101.373,163.061 101.658,162.032 102.524 M234.784 102.174 C 234.659 102.501,235.132 103.186,236.112 104.099 C 237.428 105.324,238.651 107.396,239.448 109.750 C 239.861 110.968,241.333 110.479,241.333 109.124 C 241.333 105.332,235.819 99.479,234.784 102.174 M205.643 103.195 C 204.952 104.028,205.677 104.817,207.242 104.934 C 208.628 105.038,209.185 104.537,208.800 103.533 C 208.451 102.623,206.308 102.393,205.643 103.195 M197.833 104.561 C 190.123 105.234,180.887 110.495,178.598 115.517 C 177.376 118.199,179.587 117.837,181.915 114.975 C 191.130 103.644,208.771 104.031,218.884 115.786 C 221.635 118.984,222.661 117.001,219.991 113.645 C 215.099 107.496,206.168 103.835,197.833 104.561 M198.333 107.527 C 197.875 107.602,196.450 107.830,195.167 108.035 C 189.004 109.018,183.159 113.127,179.186 119.268 C 177.135 122.438,177.304 125.315,179.417 123.202 C 179.813 122.806,179.932 122.874,180.234 123.674 C 180.538 124.479,180.499 124.633,179.960 124.774 C 178.868 125.059,179.275 126.044,181.250 127.897 C 184.617 131.055,187.000 132.072,187.000 130.351 C 187.000 129.744,187.085 129.719,187.906 130.090 C 188.744 130.469,188.758 130.508,188.101 130.603 C 185.932 130.916,187.005 132.360,190.248 133.493 C 193.677 134.691,195.276 134.380,193.954 132.773 C 193.542 132.272,193.608 132.243,194.667 132.458 C 199.095 133.359,201.729 132.845,199.824 131.452 C 199.279 131.054,199.447 131.000,201.242 131.000 C 202.362 131.000,203.516 130.909,203.806 130.798 C 204.208 130.643,204.333 130.813,204.333 131.511 C 204.333 132.448,206.090 132.594,208.083 131.821 C 208.520 131.652,208.667 131.763,208.667 132.262 C 208.667 133.124,209.361 133.374,210.693 132.992 C 212.590 132.448,213.601 131.051,212.544 130.433 C 212.205 130.235,212.397 129.966,213.294 129.382 L 214.500 128.597 213.772 129.382 C 212.383 130.879,213.802 131.942,215.455 130.642 C 216.495 129.824,216.599 128.744,215.671 128.400 C 215.010 128.156,215.010 128.154,215.671 127.741 C 216.249 127.380,216.333 127.413,216.333 127.997 C 216.333 128.966,217.323 128.843,218.938 127.673 C 221.167 126.059,222.048 124.000,220.510 124.000 C 220.230 124.000,220.000 123.859,220.000 123.686 C 220.000 123.204,220.595 122.947,220.830 123.328 C 221.182 123.897,222.330 123.715,222.373 123.083 C 222.618 119.460,215.618 111.948,209.603 109.380 C 206.872 108.214,200.523 107.170,198.333 107.527 M167.888 108.826 C 167.139 109.575,167.557 110.392,168.626 110.268 C 169.308 110.189,169.500 109.984,169.500 109.338 C 169.500 108.344,168.642 108.072,167.888 108.826 M230.702 108.791 C 230.142 109.465,230.618 110.333,231.546 110.333 C 232.597 110.333,232.972 109.381,232.157 108.785 C 231.383 108.219,231.176 108.220,230.702 108.791 M204.481 110.970 C 204.760 111.420,204.326 112.333,203.833 112.333 C 203.238 112.333,202.974 111.493,203.426 111.041 C 203.879 110.588,204.231 110.564,204.481 110.970 M177.000 112.666 C 176.108 113.559,176.232 114.795,177.229 114.937 C 178.183 115.073,179.281 113.521,178.787 112.736 C 178.269 111.915,177.771 111.896,177.000 112.666 M221.222 112.556 C 220.464 113.314,221.755 115.159,222.892 114.942 C 223.618 114.804,223.881 113.493,223.318 112.815 C 222.907 112.320,221.618 112.160,221.222 112.556 M189.333 114.613 C 189.333 123.424,201.250 127.803,207.693 121.360 C 209.685 119.368,210.448 117.700,210.862 114.429 L 211.083 112.691 212.625 113.743 C 214.517 115.032,218.000 118.521,218.000 119.127 C 218.000 121.908,209.410 127.546,203.513 128.636 C 196.208 129.986,186.291 126.025,182.522 120.250 C 181.667 118.941,183.276 116.760,187.238 113.853 C 189.316 112.329,189.333 112.335,189.333 114.613 M175.027 115.640 C 173.577 117.089,173.318 120.000,174.639 120.000 C 175.292 120.000,177.000 117.215,177.000 116.151 C 177.000 115.247,175.745 114.922,175.027 115.640 M223.305 115.534 C 222.755 116.196,224.466 119.765,225.418 119.941 C 226.710 120.180,226.541 117.347,225.175 115.874 C 224.235 114.859,223.914 114.801,223.305 115.534 M197.645 119.999 C 200.465 120.783,203.267 120.164,205.167 118.338 C 206.694 116.870,207.815 117.709,206.468 119.311 C 203.307 123.067,197.184 123.172,193.685 119.530 C 191.899 117.670,193.132 116.824,195.133 118.537 C 195.861 119.160,196.991 119.818,197.645 119.999 M153.758 119.898 C 152.530 121.671,151.609 123.961,151.836 124.677 C 152.193 125.800,153.043 125.301,154.033 123.386 C 154.539 122.406,155.201 121.330,155.506 120.994 C 156.223 120.201,156.020 119.194,155.116 119.065 C 154.642 118.997,154.189 119.275,153.758 119.898 M244.117 119.509 C 244.010 119.789,244.307 120.576,244.779 121.259 C 245.250 121.942,245.872 123.069,246.162 123.765 C 247.117 126.062,248.769 125.770,248.067 123.427 C 247.134 120.311,244.726 117.922,244.117 119.509 M148.698 120.710 C 147.751 121.727,146.583 124.954,146.820 125.899 C 147.179 127.331,148.574 126.920,149.018 125.250 C 149.225 124.471,149.691 123.348,150.054 122.755 C 151.281 120.752,150.190 119.108,148.698 120.710 M249.556 120.222 C 249.132 120.645,249.337 121.673,250.158 123.250 C 250.611 124.121,251.064 125.246,251.164 125.750 C 251.371 126.792,252.774 127.070,253.131 126.139 C 253.944 124.020,250.861 118.917,249.556 120.222 M156.415 124.083 C 155.111 125.713,156.291 128.491,157.611 126.900 C 158.497 125.833,158.478 123.667,157.583 123.667 C 157.124 123.667,156.598 123.854,156.415 124.083 M241.803 124.126 C 241.533 124.829,242.128 126.736,242.736 127.120 C 243.438 127.563,244.333 126.860,244.333 125.867 C 244.333 124.272,242.287 122.865,241.803 124.126 M157.628 127.452 C 157.063 128.692,157.507 130.069,158.428 129.938 C 159.065 129.848,159.167 129.628,159.167 128.338 C 159.167 126.561,158.269 126.044,157.628 127.452 M176.193 127.219 C 175.694 128.520,180.657 132.077,181.380 130.936 C 181.814 130.252,181.788 130.217,179.512 128.393 C 177.234 126.568,176.537 126.321,176.193 127.219 M220.583 128.245 C 218.686 129.758,218.171 130.831,219.158 131.210 C 220.252 131.629,224.201 128.244,223.809 127.223 C 223.470 126.341,222.642 126.604,220.583 128.245 M240.799 127.135 C 240.701 127.392,240.668 128.105,240.727 128.718 C 240.870 130.218,242.435 130.397,242.604 128.933 C 242.794 127.282,241.310 125.803,240.799 127.135 M169.307 127.865 C 168.724 128.568,169.537 130.121,170.566 130.269 C 171.542 130.411,171.890 129.223,171.187 128.150 C 170.568 127.206,169.934 127.110,169.307 127.865 M229.060 127.761 C 228.448 128.499,228.450 129.706,229.064 130.105 C 229.866 130.627,231.066 129.500,230.932 128.351 C 230.819 127.377,229.677 127.017,229.060 127.761 M146.969 129.227 C 146.377 130.752,146.953 132.475,148.100 132.607 L 149.033 132.714 148.933 130.607 C 148.816 128.132,147.700 127.347,146.969 129.227 M251.136 128.792 C 250.703 129.921,251.157 132.492,251.811 132.617 C 253.068 132.856,253.820 130.532,252.988 128.978 C 252.590 128.235,251.396 128.115,251.136 128.792 M176.222 130.222 C 175.447 130.997,176.924 133.000,178.271 133.000 C 179.305 133.000,179.206 131.988,178.065 130.896 C 177.123 129.993,176.631 129.813,176.222 130.222 M221.862 130.970 C 220.842 132.034,220.875 133.000,221.931 133.000 C 222.765 133.000,224.089 131.541,223.943 130.784 C 223.757 129.818,222.892 129.895,221.862 130.970 M192.333 131.833 C 192.975 132.080,193.275 132.287,193.000 132.293 C 192.725 132.299,192.050 132.097,191.500 131.845 C 190.213 131.256,190.811 131.247,192.333 131.833 M206.000 137.332 C 217.326 137.843,229.963 139.578,235.472 141.378 C 240.871 143.143,246.086 145.667,244.333 145.667 C 243.869 145.667,243.916 146.782,244.400 147.267 C 244.620 147.487,245.188 147.667,245.662 147.667 C 246.286 147.667,246.539 147.851,246.575 148.333 C 246.603 148.702,246.420 149.000,246.166 149.000 C 244.826 149.000,245.294 150.335,247.100 151.663 C 248.459 152.662,248.461 152.667,247.527 152.667 C 246.734 152.667,246.611 152.783,246.732 153.417 C 246.854 154.051,246.731 154.167,245.938 154.167 C 245.418 154.167,245.000 153.984,245.000 153.756 C 245.000 153.271,243.550 152.845,242.834 153.120 C 241.650 153.575,242.598 154.967,244.209 155.139 C 244.718 155.193,245.193 155.412,245.264 155.626 C 245.335 155.839,245.830 156.240,246.363 156.516 C 246.897 156.791,247.333 157.164,247.333 157.344 C 247.333 157.524,246.701 157.213,245.929 156.653 C 243.212 154.685,241.676 155.921,244.333 157.938 C 245.158 158.564,245.888 159.317,245.955 159.612 C 246.027 159.927,245.513 159.637,244.704 158.907 C 243.949 158.225,243.068 157.667,242.746 157.667 C 242.424 157.667,241.973 157.367,241.744 157.000 C 241.180 156.097,239.664 156.106,239.426 157.014 C 239.329 157.388,239.080 157.623,238.874 157.537 C 229.405 153.564,216.961 151.404,201.833 151.105 C 183.958 150.751,174.686 152.224,161.617 157.491 C 161.218 157.651,161.080 157.545,161.117 157.106 C 161.190 156.224,159.225 156.073,158.615 156.915 C 158.369 157.255,157.676 157.733,157.077 157.977 C 156.477 158.220,155.624 158.851,155.180 159.378 C 154.737 159.905,154.291 160.200,154.188 160.035 C 154.021 159.765,154.689 159.093,156.975 157.234 C 159.034 155.559,156.358 155.190,154.132 156.842 L 152.500 158.052 154.000 156.610 C 154.825 155.816,155.841 155.145,156.257 155.118 C 157.246 155.055,158.000 154.410,158.000 153.626 C 158.000 152.795,156.214 152.763,155.602 153.583 C 154.971 154.428,153.676 154.404,153.764 153.549 C 153.811 153.095,153.583 152.819,153.052 152.688 C 152.301 152.502,152.324 152.453,153.636 151.398 C 155.097 150.224,155.355 149.457,154.417 149.073 C 154.096 148.941,153.833 148.533,153.833 148.167 C 153.833 147.658,153.615 147.503,152.917 147.513 C 151.777 147.529,151.776 147.539,153.061 146.623 C 153.986 145.965,154.092 145.946,153.889 146.476 C 153.510 147.462,154.208 148.009,155.340 147.614 C 157.081 147.007,156.921 145.075,155.167 145.516 C 153.777 145.866,158.958 143.379,161.667 142.395 C 168.926 139.760,179.872 138.006,193.155 137.350 C 195.911 137.213,198.317 137.081,198.500 137.055 C 198.683 137.030,202.058 137.154,206.000 137.332 M188.586 159.833 C 190.464 162.175,191.873 162.703,192.059 161.137 C 192.157 160.317,196.405 165.085,198.130 167.948 C 198.387 168.375,197.945 168.413,194.794 168.233 C 188.712 167.885,188.508 168.220,191.687 173.350 C 193.634 176.493,193.853 176.975,192.927 176.083 C 191.643 174.848,190.756 174.700,190.400 175.664 C 190.188 176.235,189.315 175.476,184.160 170.248 C 180.864 166.904,179.907 165.869,182.035 167.947 C 185.112 170.953,186.066 171.703,186.698 171.613 C 188.256 171.392,187.819 170.403,184.800 167.318 C 183.194 165.677,182.028 164.333,182.211 164.333 C 182.393 164.333,182.973 164.783,183.500 165.333 C 184.027 165.883,184.720 166.333,185.040 166.333 C 185.426 166.333,185.658 166.640,185.728 167.244 C 185.850 168.297,187.387 169.080,188.044 168.423 C 188.714 167.753,188.084 166.334,187.023 166.121 C 185.842 165.885,185.311 164.333,186.411 164.333 C 186.791 164.333,187.138 164.044,187.244 163.639 C 187.406 163.019,187.634 163.151,189.385 164.884 C 191.408 166.886,192.310 167.063,192.614 165.517 C 192.766 164.743,187.545 159.496,186.974 159.850 C 186.705 160.015,186.649 159.965,186.811 159.704 C 186.946 159.484,186.807 158.922,186.502 158.456 C 185.377 156.740,186.925 157.763,188.586 159.833 M190.990 158.750 L 191.772 159.833 190.886 159.025 C 190.399 158.581,190.000 158.093,190.000 157.942 C 190.000 157.479,190.177 157.623,190.990 158.750 M215.245 160.590 C 216.571 162.191,217.898 163.846,218.194 164.269 C 218.868 165.235,220.069 165.128,220.320 164.080 C 220.480 163.412,220.714 163.599,222.406 165.747 L 224.312 168.167 219.910 168.333 C 214.873 168.524,214.611 168.709,216.127 171.000 C 218.876 175.153,219.690 176.697,218.838 176.139 C 217.899 175.524,217.000 175.709,217.000 176.518 C 217.000 176.819,214.116 174.284,210.471 170.778 C 205.728 166.216,204.105 164.467,204.537 164.380 C 204.925 164.301,205.863 165.024,207.240 166.463 C 208.400 167.675,209.551 168.667,209.799 168.667 C 210.047 168.667,210.339 169.113,210.448 169.658 C 210.755 171.193,213.000 171.523,213.000 170.032 C 213.000 169.206,211.814 168.205,211.142 168.463 C 210.737 168.619,210.646 168.535,210.795 168.146 C 211.023 167.553,210.593 166.580,209.543 165.309 C 209.153 164.837,209.677 165.337,210.707 166.421 C 212.139 167.927,212.767 168.365,213.370 168.279 C 214.579 168.107,214.543 167.082,213.281 165.777 C 212.275 164.736,212.223 164.592,212.750 164.295 C 213.071 164.115,213.333 163.714,213.333 163.406 C 213.333 163.052,213.898 163.490,214.859 164.589 C 216.608 166.588,218.000 166.989,218.000 165.493 C 218.000 163.356,211.892 157.900,211.439 159.632 C 211.287 160.215,211.155 160.261,210.559 159.942 L 209.858 159.567 210.596 159.294 C 211.025 159.135,211.333 158.739,211.333 158.344 C 211.333 156.780,212.771 157.605,215.245 160.590 M242.000 158.874 C 242.000 159.337,241.916 159.351,241.417 158.968 C 241.096 158.723,240.771 158.480,240.694 158.428 C 240.618 158.376,240.881 158.333,241.278 158.333 C 241.722 158.333,242.000 158.542,242.000 158.874 M166.231 160.205 C 168.735 159.921,169.931 160.605,169.374 162.002 C 169.063 162.782,169.041 162.789,169.021 162.108 C 168.999 161.352,168.285 161.024,167.220 161.279 C 166.780 161.385,166.649 161.648,166.757 162.213 C 166.852 162.712,166.750 163.000,166.477 163.000 C 166.240 163.000,165.998 162.662,165.940 162.250 C 165.868 161.741,165.565 161.463,165.000 161.385 C 164.542 161.321,164.047 161.059,163.900 160.801 C 163.576 160.232,161.950 160.184,161.406 160.728 C 161.189 160.945,160.928 161.039,160.826 160.937 C 160.725 160.836,161.281 160.451,162.063 160.083 C 163.324 159.490,163.528 159.472,163.857 159.923 C 164.154 160.328,164.634 160.385,166.231 160.205 M238.000 160.000 C 238.392 160.254,238.310 160.324,237.619 160.328 C 237.134 160.331,236.652 160.558,236.546 160.833 C 236.441 161.108,235.970 161.333,235.500 161.333 C 234.390 161.333,234.016 162.267,234.863 162.926 C 235.450 163.384,235.452 163.406,234.889 163.212 C 234.554 163.095,234.141 163.000,233.973 163.000 C 233.804 163.000,233.667 162.605,233.667 162.123 C 233.667 161.297,233.592 161.256,232.376 161.419 C 230.474 161.674,229.882 161.154,231.367 160.534 C 232.181 160.194,233.140 160.097,234.400 160.227 C 235.599 160.351,236.323 160.286,236.474 160.042 C 236.757 159.584,237.332 159.568,238.000 160.000 M244.031 161.059 C 244.295 161.552,244.296 161.683,244.035 161.522 C 243.834 161.398,243.504 160.986,243.302 160.608 C 243.038 160.115,243.037 159.983,243.298 160.145 C 243.499 160.269,243.829 160.680,244.031 161.059 M171.667 165.948 C 171.667 166.103,171.046 167.191,170.286 168.365 C 168.786 170.686,168.201 172.212,168.694 172.517 C 169.412 172.961,170.334 172.182,171.546 170.109 C 172.285 168.843,172.877 168.127,172.936 168.427 C 173.077 169.140,172.044 171.045,170.007 173.833 C 167.961 176.634,166.177 180.164,165.542 182.667 C 164.984 184.868,164.983 184.868,163.078 179.000 L 161.833 175.167 159.000 175.206 C 157.442 175.228,155.213 175.498,154.046 175.808 C 151.175 176.570,151.183 176.420,154.172 173.349 C 156.419 171.040,156.822 170.752,157.160 171.214 C 157.752 172.024,158.978 171.466,159.535 170.135 C 159.796 169.511,160.214 169.000,160.464 169.000 C 160.714 169.000,161.113 168.766,161.351 168.479 C 161.743 168.006,161.810 168.006,162.075 168.479 C 162.475 169.194,162.785 169.138,163.974 168.137 C 164.772 167.466,165.000 167.392,165.000 167.804 C 165.000 168.498,165.977 168.479,166.998 167.764 L 167.811 167.194 167.048 168.266 C 166.278 169.347,166.197 170.344,166.860 170.565 C 167.493 170.775,168.929 169.372,170.005 167.491 C 170.942 165.854,171.667 165.181,171.667 165.948 M230.787 168.000 C 232.000 169.824,232.516 170.333,233.150 170.333 C 234.381 170.333,234.407 169.915,233.287 168.132 L 232.261 166.500 233.232 167.417 C 234.257 168.384,234.973 168.560,235.547 167.986 C 235.789 167.745,236.026 167.796,236.322 168.153 C 236.799 168.728,238.184 168.845,238.498 168.336 C 238.619 168.141,239.091 168.294,239.653 168.709 C 240.208 169.119,240.777 169.305,241.020 169.154 C 241.296 168.984,241.352 169.033,241.187 169.301 C 240.416 170.547,242.325 172.375,243.178 171.208 C 243.521 170.739,243.945 171.075,246.370 173.734 C 247.908 175.420,249.015 176.708,248.829 176.596 C 248.019 176.106,240.075 174.646,239.149 174.817 C 238.166 174.999,238.086 175.155,236.727 179.503 C 235.168 184.489,234.978 184.722,234.376 182.376 C 233.751 179.934,232.351 177.194,229.885 173.586 C 228.447 171.481,227.667 170.010,227.667 169.403 C 227.667 168.888,227.489 168.289,227.272 168.072 C 227.055 167.855,226.955 167.601,227.049 167.506 C 227.144 167.412,227.784 168.298,228.473 169.475 C 229.952 172.004,230.771 172.826,231.523 172.537 C 232.308 172.236,231.941 171.112,230.161 168.359 C 229.339 167.089,228.667 165.964,228.667 165.858 C 228.667 165.193,229.439 165.973,230.787 168.000 M163.741 168.852 C 163.033 169.348,162.718 170.795,163.250 171.108 C 164.263 171.704,166.303 169.274,165.314 168.648 C 164.672 168.242,164.599 168.251,163.741 168.852 M235.222 168.556 C 234.850 168.928,234.974 170.230,235.417 170.594 C 236.278 171.302,237.161 171.205,237.277 170.389 C 237.449 169.174,235.946 167.832,235.222 168.556 M166.653 174.026 C 166.172 174.924,166.470 175.667,167.311 175.667 C 167.998 175.667,168.667 174.772,168.667 173.855 C 168.667 173.061,167.098 173.194,166.653 174.026 M232.062 174.417 C 232.188 175.725,234.000 176.316,234.000 175.049 C 234.000 173.875,233.614 173.333,232.777 173.333 C 232.054 173.333,231.970 173.460,232.062 174.417 M148.061 200.654 C 141.749 203.577,130.903 221.018,129.477 230.537 C 129.266 231.950,128.941 232.470,127.033 234.449 C 120.110 241.633,119.626 235.933,126.209 224.747 C 127.636 222.322,128.011 221.424,127.761 221.025 C 127.307 220.300,125.133 220.169,124.156 220.809 C 123.424 221.289,123.273 221.275,122.164 220.621 C 116.195 217.099,102.665 229.944,104.128 237.744 C 105.072 242.778,110.041 242.578,115.425 237.289 C 116.706 236.030,117.773 235.000,117.794 235.000 C 117.816 235.000,117.833 235.972,117.833 237.160 C 117.833 242.352,122.374 243.023,127.479 238.586 L 128.792 237.446 129.479 238.787 C 131.365 242.464,136.567 242.409,141.545 238.659 L 143.257 237.369 143.439 238.278 C 144.118 241.671,148.568 242.440,153.497 240.016 C 155.441 239.060,155.511 239.050,156.163 239.645 C 159.410 242.604,166.180 241.911,171.238 238.102 L 172.479 237.167 171.511 238.833 C 168.868 243.386,168.373 244.005,165.332 246.568 C 159.573 251.422,158.054 253.549,159.028 255.397 C 160.697 258.566,165.477 255.770,169.791 249.100 C 172.045 245.617,175.408 242.761,181.744 238.954 C 184.765 237.138,185.000 237.067,185.000 237.974 C 185.000 241.051,189.442 241.999,193.661 239.823 C 202.225 235.406,210.231 220.000,203.962 220.000 C 203.418 220.000,202.538 219.678,202.006 219.285 C 198.679 216.825,189.864 222.977,186.479 230.121 C 185.642 231.888,184.847 233.333,184.712 233.333 C 184.576 233.333,182.465 234.763,180.021 236.510 C 174.886 240.180,174.941 240.166,176.756 237.327 C 186.378 222.271,187.876 218.456,183.760 219.489 C 179.520 220.553,175.037 226.000,178.400 226.000 C 179.253 226.000,179.252 226.002,176.583 230.286 C 174.484 233.658,174.153 234.046,174.061 233.250 C 173.912 231.950,173.261 232.092,171.004 233.917 C 165.692 238.212,160.900 239.305,159.215 236.605 C 158.445 235.372,160.991 233.124,165.917 230.688 C 169.463 228.934,168.697 226.874,164.788 227.651 C 161.830 228.239,161.516 227.818,163.563 226.009 C 165.057 224.689,168.183 222.677,168.750 222.670 C 168.887 222.668,169.000 223.033,169.000 223.480 C 169.000 226.033,173.546 223.828,174.173 220.971 C 175.237 216.127,161.904 220.040,159.141 225.383 C 158.501 226.621,158.534 229.328,159.201 230.281 C 159.494 230.700,159.682 231.071,159.617 231.105 C 159.553 231.139,158.922 231.461,158.215 231.822 C 157.508 232.182,156.245 233.278,155.408 234.258 C 151.456 238.883,146.675 238.888,147.063 234.266 C 147.205 232.579,147.379 232.299,150.979 228.000 C 162.336 214.434,168.172 204.917,167.010 201.858 C 163.850 193.549,146.813 214.538,143.645 230.644 C 142.766 235.110,135.925 239.288,133.485 236.848 C 131.744 235.108,132.478 232.987,136.390 228.454 C 145.258 218.180,152.339 207.486,152.878 203.554 C 153.254 200.810,150.850 199.363,148.061 200.654 M113.333 200.548 C 110.177 201.570,109.037 202.333,110.667 202.333 C 115.087 202.333,98.496 223.119,87.500 231.356 C 74.475 241.113,75.394 235.403,90.221 214.436 C 96.779 205.163,96.961 204.888,97.190 203.917 C 97.386 203.083,97.274 202.940,95.953 202.341 C 93.649 201.295,93.102 201.442,89.661 204.022 C 83.644 208.534,80.011 210.427,80.265 208.917 C 80.523 207.380,78.614 208.763,77.984 210.568 C 76.540 214.712,80.868 215.398,85.669 211.786 C 88.713 209.496,88.748 209.575,86.124 212.833 C 73.809 228.130,69.903 237.703,74.891 240.362 C 82.063 244.185,106.118 224.504,115.277 207.320 C 117.920 202.363,117.053 199.343,113.333 200.548 M256.832 201.265 C 255.915 201.582,254.265 202.461,253.166 203.218 C 250.396 205.124,246.245 205.829,237.767 205.831 C 231.285 205.833,230.574 205.673,231.377 204.388 C 232.261 202.972,229.780 203.195,227.862 204.703 C 226.620 205.681,226.707 208.424,228.011 209.394 C 229.999 210.873,236.527 210.998,242.958 209.680 C 244.859 209.290,246.475 209.031,246.548 209.104 C 246.622 209.177,245.290 211.321,243.589 213.869 C 241.888 216.416,239.495 220.077,238.271 222.005 C 235.064 227.058,230.639 233.333,230.283 233.333 C 230.116 233.333,229.851 232.996,229.695 232.583 C 229.417 231.852,229.379 231.866,228.111 233.187 C 224.376 237.081,223.601 240.231,226.081 241.443 C 229.451 243.090,232.349 240.058,241.000 225.833 C 243.873 221.109,249.809 212.166,252.432 208.607 C 252.953 207.901,253.623 207.597,255.629 207.158 C 259.651 206.278,262.667 204.693,262.667 203.458 C 262.667 201.030,260.196 200.102,256.832 201.265 M148.800 204.279 C 149.330 205.137,142.883 215.371,137.146 222.776 C 134.281 226.475,134.054 226.584,135.008 223.805 C 137.426 216.754,147.604 202.344,148.800 204.279 M162.868 205.075 C 162.468 207.079,159.198 212.155,152.556 221.087 C 148.572 226.444,148.188 226.743,149.329 223.591 C 152.230 215.582,163.981 199.512,162.868 205.075 M286.566 207.417 C 285.936 208.196,285.024 209.471,284.540 210.250 L 283.658 211.667 280.483 211.667 C 276.829 211.667,275.031 212.328,274.174 213.987 C 273.073 216.116,273.721 216.516,277.697 216.164 C 280.855 215.884,280.811 215.569,278.221 219.937 C 275.446 224.618,272.941 229.363,271.967 231.784 C 270.257 236.035,264.667 239.519,264.667 236.333 C 264.667 234.265,267.768 227.026,270.134 223.569 C 271.112 222.140,271.257 220.837,270.473 220.536 C 269.523 220.171,267.897 220.323,267.338 220.829 C 266.851 221.270,266.645 221.249,265.479 220.638 C 259.244 217.377,246.614 229.064,247.411 237.356 C 247.956 243.030,253.198 242.819,259.073 236.888 L 261.000 234.942 261.001 236.888 C 261.004 241.654,264.920 243.058,269.167 239.815 L 270.695 238.649 271.772 239.792 C 272.821 240.904,275.097 241.830,276.048 241.531 C 276.296 241.453,276.893 241.303,277.374 241.199 C 277.855 241.094,279.182 240.321,280.323 239.481 C 281.464 238.641,282.439 238.002,282.490 238.060 C 282.541 238.119,282.828 238.652,283.130 239.244 C 284.563 242.062,288.089 242.239,291.891 239.684 L 293.830 238.380 294.763 239.512 C 298.102 243.562,306.003 239.402,311.999 230.437 C 315.699 224.905,316.032 220.000,312.707 220.000 C 312.180 220.000,311.565 219.779,311.341 219.509 C 308.201 215.726,296.979 224.200,294.421 232.285 C 293.553 235.027,290.128 237.819,287.895 237.603 C 285.254 237.347,287.188 232.392,295.251 218.762 C 297.281 215.331,297.051 215.471,301.156 215.157 C 305.892 214.794,306.862 214.103,305.148 212.313 C 304.319 211.449,303.980 211.333,302.271 211.333 C 299.983 211.333,300.016 211.442,301.531 208.949 C 302.990 206.548,302.869 206.000,300.884 206.000 C 299.341 206.000,298.166 207.141,296.146 210.600 L 295.503 211.700 292.002 211.474 C 290.076 211.349,288.476 211.229,288.447 211.207 C 288.418 211.185,289.006 210.141,289.753 208.888 C 291.270 206.346,291.176 206.014,288.939 206.005 C 287.894 206.001,287.541 206.211,286.566 207.417 M189.833 209.946 C 186.041 212.258,185.592 216.094,189.220 215.183 C 190.441 214.877,192.924 212.436,193.175 211.297 C 193.588 209.413,191.855 208.713,189.833 209.946 M289.545 216.172 C 291.078 216.045,292.333 215.996,292.333 216.065 C 292.333 216.134,291.121 218.210,289.639 220.679 C 288.158 223.147,286.037 227.042,284.926 229.333 C 282.398 234.547,278.784 237.918,276.060 237.603 C 273.832 237.346,275.122 233.376,280.628 223.543 C 284.649 216.364,285.214 215.579,286.047 216.025 C 286.523 216.280,287.674 216.328,289.545 216.172 M326.948 219.131 C 315.149 223.346,308.324 244.054,319.748 240.978 C 328.999 238.487,340.629 220.000,332.945 220.000 C 332.391 220.000,331.557 219.700,331.091 219.333 C 330.122 218.571,328.709 218.502,326.948 219.131 M91.366 220.739 C 89.807 223.277,89.820 223.230,90.976 222.127 C 91.575 221.556,92.014 220.838,91.950 220.533 C 91.853 220.072,91.753 220.108,91.366 220.739 M200.256 222.667 C 200.485 223.033,200.915 223.333,201.211 223.333 C 202.554 223.333,200.383 227.882,197.024 232.109 C 193.713 236.277,189.334 238.614,188.803 236.498 C 187.922 232.986,192.710 225.889,198.000 222.865 C 199.807 221.832,199.739 221.838,200.256 222.667 M309.485 222.848 C 310.554 223.918,310.550 224.591,309.460 226.761 C 305.908 233.834,298.102 239.993,297.724 236.021 C 297.377 232.379,301.636 226.063,306.482 223.031 C 308.470 221.787,308.426 221.790,309.485 222.848 M329.256 222.667 C 329.485 223.033,329.915 223.333,330.211 223.333 C 331.554 223.333,329.383 227.882,326.024 232.109 C 322.713 236.277,318.334 238.614,317.803 236.498 C 316.922 232.986,321.710 225.889,327.000 222.865 C 328.807 221.832,328.739 221.838,329.256 222.667 M121.125 224.750 C 120.429 225.713,119.260 227.325,118.527 228.333 C 116.256 231.460,109.691 237.333,108.467 237.333 C 107.559 237.333,107.976 235.227,109.389 232.667 C 112.086 227.783,117.968 223.001,121.278 223.000 L 122.390 223.000 121.125 224.750 M265.333 223.166 C 265.333 225.042,253.614 237.333,251.826 237.333 C 248.923 237.333,254.903 227.841,259.722 224.799 C 261.852 223.454,265.333 222.441,265.333 223.166 M90.583 240.302 L 89.333 241.112 89.333 286.723 L 89.333 332.333 200.000 332.333 L 310.667 332.333 310.655 286.917 C 310.646 251.928,310.550 241.334,310.238 240.777 L 309.833 240.054 308.879 240.876 L 307.925 241.699 307.745 285.516 L 307.566 329.333 199.949 329.333 L 92.333 329.333 92.286 297.250 C 92.259 279.604,92.147 259.390,92.036 252.330 L 91.833 239.493 90.583 240.302 M165.167 268.393 C 164.800 268.597,164.447 268.808,164.383 268.861 C 164.318 268.914,164.506 269.300,164.799 269.719 C 165.803 271.152,165.505 281.667,164.461 281.667 C 164.208 281.667,164.000 281.817,164.000 282.000 C 164.000 282.188,164.944 282.333,166.167 282.333 C 168.255 282.333,169.046 281.931,167.667 281.570 C 167.028 281.403,167.000 281.115,167.000 274.698 C 167.000 267.432,166.984 267.377,165.167 268.393 M186.583 268.387 C 185.545 268.767,185.446 269.069,186.167 269.667 C 187.046 270.396,186.893 281.337,186.000 281.570 C 184.620 281.931,185.411 282.333,187.500 282.333 C 189.589 282.333,190.380 281.931,189.000 281.570 C 188.455 281.428,188.333 281.115,188.333 279.865 C 188.333 277.930,188.569 277.946,190.301 280.000 C 191.255 281.131,191.539 281.667,191.187 281.667 C 190.901 281.667,190.667 281.817,190.667 282.000 C 190.667 282.188,191.611 282.333,192.833 282.333 C 194.938 282.333,195.677 281.927,194.342 281.503 C 193.660 281.286,190.662 277.987,190.673 277.464 C 190.682 276.999,193.228 275.000,193.811 275.000 C 194.098 275.000,194.333 274.775,194.333 274.500 C 194.333 273.971,192.564 273.813,191.083 274.210 C 190.196 274.448,190.082 274.996,190.917 275.008 C 191.332 275.014,191.067 275.423,190.000 276.425 L 188.500 277.833 188.408 272.917 C 188.309 267.669,188.340 267.746,186.583 268.387 M226.250 268.387 C 225.212 268.767,225.113 269.069,225.833 269.667 C 226.713 270.396,226.560 281.337,225.667 281.570 C 224.287 281.931,225.078 282.333,227.167 282.333 C 229.255 282.333,230.046 281.931,228.667 281.570 C 228.122 281.428,228.000 281.115,228.000 279.865 C 228.000 277.930,228.236 277.946,229.968 280.000 C 230.922 281.131,231.206 281.667,230.853 281.667 C 230.567 281.667,230.333 281.817,230.333 282.000 C 230.333 282.188,231.278 282.333,232.500 282.333 C 234.605 282.333,235.344 281.927,234.009 281.503 C 233.326 281.286,230.329 277.987,230.339 277.464 C 230.349 276.999,232.895 275.000,233.478 275.000 C 233.765 275.000,234.000 274.775,234.000 274.500 C 234.000 273.971,232.231 273.813,230.750 274.210 C 229.863 274.448,229.748 274.996,230.583 275.008 C 230.998 275.014,230.734 275.423,229.667 276.425 L 228.167 277.833 228.074 272.917 C 227.976 267.669,228.007 267.746,226.250 268.387 M152.333 269.342 C 152.333 269.529,152.712 269.827,153.175 270.003 L 154.017 270.323 153.925 275.745 C 153.836 281.006,153.811 281.176,153.083 281.496 C 151.641 282.129,152.362 282.333,156.033 282.333 C 160.451 282.333,161.815 281.856,162.571 280.049 C 163.347 278.192,162.259 275.333,160.775 275.333 C 160.175 275.333,160.219 274.843,160.868 274.305 C 162.354 273.072,162.049 270.387,160.322 269.494 C 159.188 268.908,152.333 268.777,152.333 269.342 M159.083 270.589 C 160.600 271.926,159.506 274.508,157.333 274.720 L 156.167 274.833 156.066 272.702 C 155.917 269.540,157.019 268.768,159.083 270.589 M219.917 274.191 C 218.857 274.766,218.824 274.872,219.500 275.548 C 220.440 276.488,220.128 281.667,219.131 281.667 C 218.876 281.667,218.667 281.817,218.667 282.000 C 218.667 282.190,219.667 282.333,221.000 282.333 C 223.183 282.333,224.251 281.843,222.583 281.607 C 221.888 281.508,221.826 281.308,221.735 278.885 C 221.621 275.839,221.931 275.197,223.266 275.704 C 224.244 276.076,225.117 275.360,224.775 274.468 C 224.570 273.934,222.811 273.830,222.500 274.333 C 222.189 274.837,221.667 274.733,221.667 274.167 C 221.667 273.541,221.099 273.549,219.917 274.191 M170.633 274.761 C 169.490 275.529,168.892 277.005,169.727 276.995 C 170.363 276.988,170.845 276.604,171.295 275.750 C 172.056 274.305,173.667 275.148,173.667 276.992 C 173.667 277.535,173.174 277.916,171.500 278.667 C 169.459 279.582,169.333 279.704,169.333 280.753 C 169.333 282.533,171.159 283.319,173.002 282.332 C 173.419 282.109,173.695 282.109,173.833 282.332 C 174.061 282.702,175.648 282.781,176.473 282.464 C 177.290 282.151,177.115 281.329,176.250 281.421 C 175.525 281.497,175.494 281.385,175.333 278.070 C 175.209 275.520,175.038 274.560,174.667 274.325 C 173.767 273.759,171.809 273.970,170.633 274.761 M179.631 274.499 C 177.074 275.889,176.652 280.225,178.902 281.995 C 180.247 283.052,182.705 282.921,184.048 281.721 C 185.346 280.561,185.094 279.616,183.765 280.661 C 181.671 282.308,179.333 280.752,179.333 277.709 C 179.333 275.480,181.488 274.278,183.260 275.519 C 184.105 276.111,184.667 275.910,184.667 275.016 C 184.667 273.918,181.330 273.576,179.631 274.499 M210.160 275.107 C 207.214 278.052,208.906 282.662,212.933 282.665 C 216.388 282.668,218.281 279.579,216.879 276.224 C 215.833 273.721,212.157 273.110,210.160 275.107 M194.667 274.547 C 194.667 274.664,194.891 274.926,195.164 275.130 C 195.438 275.333,196.321 277.144,197.128 279.154 C 198.908 283.595,198.985 283.631,200.156 280.592 C 201.427 277.295,201.424 277.295,202.585 280.227 C 203.933 283.633,203.979 283.619,205.660 279.311 C 206.456 277.273,207.382 275.433,207.720 275.223 C 208.731 274.591,208.426 274.333,206.667 274.333 C 205.750 274.333,205.000 274.483,205.000 274.667 C 205.000 274.850,205.225 275.000,205.500 275.000 C 205.775 275.000,206.000 275.056,206.000 275.125 C 206.000 275.271,205.238 277.400,204.674 278.833 L 204.279 279.833 203.473 277.860 C 202.537 275.570,202.476 275.000,203.167 275.000 C 203.442 275.000,203.667 274.850,203.667 274.667 C 203.667 274.481,202.778 274.333,201.667 274.333 C 199.486 274.333,199.325 274.448,200.346 275.280 L 201.025 275.833 200.206 277.833 C 199.431 279.726,199.370 279.788,199.067 279.000 C 198.890 278.542,198.503 277.586,198.206 276.876 C 197.539 275.280,197.533 275.000,198.167 275.000 C 198.442 275.000,198.667 274.850,198.667 274.667 C 198.667 274.481,197.778 274.333,196.667 274.333 C 195.567 274.333,194.667 274.429,194.667 274.547 M239.333 274.644 C 239.333 274.815,239.625 275.048,239.982 275.161 C 240.605 275.359,240.959 276.108,242.534 280.569 C 243.278 282.679,242.443 285.126,240.842 285.528 C 239.561 285.849,239.628 287.420,240.917 287.272 C 241.747 287.177,242.105 286.611,244.734 281.246 C 246.329 277.989,247.867 275.236,248.151 275.127 C 249.228 274.713,248.597 274.333,246.833 274.333 C 245.825 274.333,245.000 274.483,245.000 274.667 C 245.000 274.850,245.225 275.000,245.500 275.000 C 246.213 275.000,246.125 275.669,245.102 278.026 L 244.205 280.096 243.436 277.816 C 242.528 275.125,242.516 275.000,243.167 275.000 C 243.442 275.000,243.667 274.850,243.667 274.667 C 243.667 274.479,242.722 274.333,241.500 274.333 C 240.308 274.333,239.333 274.473,239.333 274.644 M214.160 275.463 C 215.750 277.053,215.544 280.948,213.829 281.729 C 211.272 282.894,209.564 277.178,211.916 275.327 C 212.988 274.484,213.194 274.497,214.160 275.463 M158.407 276.015 C 161.442 276.858,161.596 280.493,158.634 281.343 C 156.644 281.913,156.000 281.134,156.000 278.159 C 156.000 275.384,156.032 275.355,158.407 276.015 M173.514 279.917 C 173.181 281.275,172.456 281.907,171.744 281.459 C 170.815 280.874,170.878 280.087,171.896 279.535 C 173.349 278.747,173.776 278.848,173.514 279.917 M197.083 290.407 C 196.334 290.768,196.037 291.667,196.667 291.667 C 197.468 291.667,197.072 303.202,196.250 303.775 C 195.538 304.272,195.622 304.299,197.917 304.316 C 200.210 304.332,201.112 303.948,199.667 303.570 C 199.028 303.403,199.000 303.115,199.000 296.698 C 199.000 289.385,199.026 289.470,197.083 290.407 M202.083 290.407 C 201.334 290.768,201.037 291.667,201.667 291.667 C 202.468 291.667,202.072 303.202,201.250 303.775 C 200.538 304.272,200.622 304.299,202.917 304.316 C 205.210 304.332,206.112 303.948,204.667 303.570 C 204.028 303.403,204.000 303.115,204.000 296.698 C 204.000 289.385,204.026 289.470,202.083 290.407 M153.082 291.417 C 153.157 291.646,153.545 291.881,153.943 291.940 C 154.653 292.044,154.667 292.152,154.667 297.698 L 154.667 303.350 153.833 303.667 C 152.448 304.194,152.867 304.333,155.833 304.333 C 157.500 304.333,158.667 304.196,158.667 304.000 C 158.667 303.817,158.372 303.667,158.012 303.667 C 156.851 303.667,156.645 302.602,156.742 297.089 L 156.833 291.833 157.995 291.891 C 161.262 292.053,161.693 297.062,158.508 297.861 C 157.247 298.178,157.495 298.667,158.917 298.665 C 162.893 298.661,164.465 293.315,161.000 291.584 C 159.539 290.854,152.850 290.713,153.082 291.417 M244.339 292.750 C 244.354 296.372,245.358 302.202,245.700 300.650 C 245.865 299.897,246.479 291.938,246.392 291.676 C 245.998 290.495,244.333 291.366,244.339 292.750 M192.013 292.151 C 191.319 292.987,191.732 293.833,192.833 293.833 C 193.522 293.833,193.859 293.651,193.940 293.234 C 194.072 292.547,193.451 291.667,192.833 291.667 C 192.603 291.667,192.234 291.884,192.013 292.151 M207.417 291.884 C 207.188 291.978,207.000 292.493,207.000 293.028 C 207.000 294.162,208.825 294.511,209.230 293.455 C 209.630 292.412,208.503 291.435,207.417 291.884 M185.750 295.847 C 184.533 297.121,184.450 297.333,185.167 297.333 C 185.574 297.333,185.667 297.891,185.667 300.355 C 185.667 302.017,185.822 303.667,186.012 304.022 C 186.618 305.154,190.000 304.774,190.000 303.574 C 190.000 303.412,189.551 303.379,189.002 303.500 C 187.717 303.782,187.333 302.895,187.333 299.645 L 187.333 297.333 188.667 297.333 C 190.467 297.333,190.538 296.418,188.750 296.270 C 187.746 296.187,187.479 296.019,187.393 295.417 C 187.254 294.435,187.046 294.490,185.750 295.847 M175.250 296.191 C 174.295 296.709,174.099 297.149,174.667 297.500 C 175.239 297.854,175.088 303.320,174.500 303.546 C 173.405 303.966,174.105 304.333,176.000 304.333 C 177.895 304.333,178.595 303.966,177.500 303.546 C 176.532 303.175,176.809 298.141,177.833 297.469 C 178.605 296.964,178.728 296.964,179.500 297.469 C 180.526 298.142,180.823 303.667,179.833 303.667 C 179.558 303.667,179.333 303.817,179.333 304.000 C 179.333 304.188,180.278 304.333,181.500 304.333 C 183.589 304.333,184.380 303.931,183.000 303.570 C 182.403 303.414,182.333 303.115,182.333 300.714 C 182.333 296.257,180.966 295.042,177.583 296.489 C 177.166 296.667,177.000 296.585,177.000 296.202 C 177.000 295.543,176.451 295.539,175.250 296.191 M192.417 296.248 C 191.296 296.806,191.093 297.145,191.667 297.500 C 192.371 297.935,192.072 303.377,191.333 303.570 C 189.954 303.931,190.745 304.333,192.833 304.333 C 194.056 304.333,195.000 304.188,195.000 304.000 C 195.000 303.817,194.775 303.667,194.500 303.667 C 194.083 303.667,194.000 303.000,194.000 299.667 C 194.000 297.467,193.887 295.676,193.750 295.688 C 193.612 295.700,193.012 295.952,192.417 296.248 M207.583 296.191 C 206.628 296.709,206.432 297.149,207.000 297.500 C 207.705 297.935,207.406 303.377,206.667 303.570 C 205.287 303.931,206.078 304.333,208.167 304.333 C 209.389 304.333,210.333 304.188,210.333 304.000 C 210.333 303.817,210.124 303.667,209.869 303.667 C 209.133 303.667,208.960 302.752,209.027 299.191 C 209.093 295.628,208.996 295.426,207.583 296.191 M219.250 296.100 C 218.325 296.465,218.052 297.120,218.667 297.500 C 219.371 297.935,219.072 303.377,218.333 303.570 C 216.954 303.931,217.745 304.333,219.833 304.333 C 221.871 304.333,222.624 303.978,221.500 303.546 C 220.554 303.183,220.802 297.864,221.786 297.416 C 224.031 296.393,225.678 302.130,223.599 303.730 C 222.844 304.310,222.865 304.319,225.083 304.326 C 226.366 304.330,227.333 304.190,227.333 304.000 C 227.333 303.817,227.124 303.667,226.869 303.667 C 226.229 303.667,226.000 302.919,226.000 300.828 C 226.000 297.679,227.153 296.368,228.909 297.519 C 229.997 298.232,230.073 303.290,229.000 303.570 C 227.620 303.931,228.411 304.333,230.500 304.333 C 231.722 304.333,232.667 304.188,232.667 304.000 C 232.667 303.817,232.458 303.667,232.202 303.667 C 231.509 303.667,231.333 302.898,231.333 299.858 C 231.333 296.119,229.696 294.933,226.684 296.491 C 225.847 296.924,225.685 296.924,225.326 296.491 C 224.854 295.922,222.602 295.833,221.645 296.345 C 221.137 296.617,221.000 296.581,221.000 296.178 C 221.000 295.598,220.569 295.578,219.250 296.100 M164.003 296.325 C 163.607 296.575,163.590 296.723,163.919 297.053 C 164.174 297.307,164.333 298.409,164.333 299.911 C 164.333 304.225,166.099 305.886,169.022 304.322 C 169.529 304.050,169.667 304.086,169.667 304.488 C 169.667 305.100,169.648 305.098,171.519 304.627 C 173.020 304.249,173.596 303.333,172.333 303.333 C 171.707 303.333,171.667 303.111,171.667 299.667 L 171.667 296.000 170.583 296.005 C 169.082 296.012,168.286 296.552,169.083 297.023 C 170.143 297.647,169.925 302.775,168.818 303.280 C 166.810 304.195,166.333 303.434,166.333 299.310 L 166.333 296.000 165.417 296.005 C 164.912 296.008,164.276 296.152,164.003 296.325 M212.408 296.519 C 210.938 297.549,211.450 299.590,213.540 301.028 C 215.053 302.069,215.373 302.942,214.504 303.663 C 213.829 304.224,213.088 303.875,212.404 302.675 C 211.637 301.326,211.333 301.408,211.333 302.964 C 211.333 304.441,211.659 304.667,213.786 304.667 C 217.175 304.667,217.816 302.009,215.000 299.634 C 213.309 298.209,212.907 297.235,213.857 296.870 C 214.496 296.625,215.518 297.131,215.784 297.824 C 216.061 298.546,216.667 298.456,216.667 297.694 C 216.667 296.306,216.312 296.000,214.705 296.000 C 213.836 296.000,212.821 296.229,212.408 296.519 M235.171 297.139 C 232.342 300.139,234.115 304.667,238.118 304.667 C 240.845 304.667,242.333 303.136,242.333 300.333 C 242.333 296.325,237.832 294.318,235.171 297.139 M239.159 297.417 C 241.387 299.352,240.244 304.437,237.729 303.780 C 235.928 303.309,235.305 298.998,236.818 297.485 C 237.825 296.478,238.071 296.471,239.159 297.417 M244.347 302.817 C 243.681 303.620,244.241 304.667,245.336 304.667 C 246.476 304.667,246.802 304.251,246.525 303.148 C 246.290 302.212,245.010 302.018,244.347 302.817 " stroke="none" fill-opacity="1" fill="#e6cb6a" fill-rule="evenodd"></path><path id="path1" d="M92.221 192.890 C 92.099 193.012,92.000 194.106,92.000 195.322 L 92.000 197.533 90.750 198.001 C 90.063 198.258,89.388 198.438,89.250 198.401 C 89.112 198.364,89.000 198.475,89.000 198.648 C 89.000 198.822,88.638 199.159,88.195 199.398 C 87.752 199.638,86.167 200.713,84.672 201.789 C 82.227 203.549,81.832 203.725,80.727 203.551 C 78.639 203.223,73.750 206.570,73.641 208.402 C 73.627 208.639,73.528 209.133,73.421 209.500 C 72.718 211.909,73.493 215.022,75.257 216.867 C 76.123 217.773,76.276 218.555,75.675 219.000 C 75.118 219.412,72.719 223.274,72.904 223.460 C 73.018 223.573,72.970 223.667,72.799 223.667 C 72.207 223.667,69.214 230.110,68.486 232.954 C 67.559 236.572,68.317 240.379,70.366 242.391 C 70.865 242.881,71.187 243.369,71.081 243.474 C 70.975 243.580,71.139 243.667,71.444 243.667 C 71.750 243.667,72.000 243.800,72.000 243.962 C 72.000 245.374,78.688 245.917,82.167 244.788 C 84.064 244.172,88.666 241.822,89.167 241.214 C 89.566 240.728,91.521 239.333,91.801 239.333 C 91.911 239.333,92.000 244.508,92.000 250.833 L 92.000 262.333 199.833 262.333 L 307.667 262.333 307.667 252.065 L 307.667 241.797 308.803 240.696 C 309.970 239.565,310.638 239.813,310.678 241.395 C 310.696 242.127,313.863 245.161,314.750 245.295 C 314.887 245.316,315.037 245.344,315.083 245.358 C 320.068 246.840,325.211 244.761,331.050 238.905 C 338.091 231.845,341.276 224.455,339.376 219.587 C 338.260 216.728,331.611 213.561,328.000 214.170 C 326.573 214.410,323.562 215.356,323.333 215.636 C 323.242 215.748,322.602 216.136,321.912 216.498 C 321.222 216.860,320.289 217.499,319.837 217.918 L 319.016 218.679 318.120 217.673 C 317.627 217.119,317.035 216.667,316.806 216.667 C 316.577 216.667,316.336 216.508,316.272 216.315 C 316.207 216.122,315.899 215.926,315.587 215.880 C 315.275 215.835,314.915 215.693,314.787 215.565 C 314.660 215.438,314.239 215.333,313.852 215.333 C 313.465 215.333,312.806 215.093,312.387 214.800 C 311.968 214.506,311.334 214.342,310.979 214.435 C 310.452 214.573,310.333 214.430,310.333 213.657 C 310.333 212.313,309.796 211.069,308.655 209.769 L 307.667 208.643 307.667 200.659 L 307.667 192.674 200.054 192.672 C 140.867 192.670,92.342 192.769,92.221 192.890 M152.455 201.048 C 154.996 203.839,149.695 213.053,136.512 228.755 C 133.432 232.424,133.091 233.028,133.033 234.917 C 132.867 240.331,142.051 235.997,143.490 229.982 C 146.851 215.926,159.486 198.309,165.017 199.966 C 170.378 201.572,166.143 210.208,151.237 228.070 C 148.100 231.828,147.383 232.891,147.197 234.054 C 146.505 238.379,151.712 238.413,155.229 234.107 C 155.928 233.252,157.120 232.157,157.877 231.675 C 159.131 230.878,159.213 230.743,158.794 230.169 C 158.196 229.351,158.202 226.554,158.804 225.390 C 162.112 218.993,177.223 215.566,174.108 221.919 C 172.890 224.402,169.134 225.661,168.680 223.738 C 168.462 222.815,165.465 224.392,163.333 226.550 L 162.167 227.732 163.333 227.561 C 163.975 227.467,165.122 227.284,165.883 227.155 C 167.128 226.945,167.322 227.007,167.827 227.778 C 168.753 229.190,168.364 229.710,165.032 231.517 C 158.422 235.100,157.425 237.680,162.658 237.659 C 165.148 237.649,171.268 234.326,172.517 232.306 C 172.821 231.814,173.941 231.954,174.260 232.524 C 174.487 232.929,175.048 232.252,176.749 229.524 L 178.945 226.000 177.979 226.000 C 174.978 226.000,177.523 222.353,182.219 219.925 C 184.219 218.891,184.378 218.860,185.248 219.344 C 187.281 220.473,186.181 222.905,177.275 236.976 C 175.992 239.002,176.229 238.994,179.053 236.914 C 180.399 235.923,182.313 234.556,183.306 233.876 C 184.764 232.879,185.254 232.292,185.848 230.831 C 188.832 223.488,198.515 216.371,202.008 218.953 C 202.539 219.346,203.366 219.667,203.845 219.667 C 209.225 219.667,206.018 229.132,198.064 236.731 C 192.614 241.939,187.015 242.850,185.103 238.840 L 184.548 237.676 182.357 238.889 C 176.483 242.142,172.493 245.518,169.881 249.443 C 165.429 256.134,160.264 258.976,158.823 255.528 C 157.880 253.269,159.156 251.437,165.163 246.422 C 168.467 243.664,168.377 243.770,170.147 240.577 L 171.398 238.321 169.782 239.324 C 165.273 242.124,159.184 242.514,156.411 240.181 L 155.467 239.387 153.325 240.415 C 149.141 242.423,145.005 241.964,143.600 239.333 C 142.867 237.963,142.957 237.958,140.707 239.473 C 137.379 241.712,133.103 242.344,130.975 240.909 C 130.036 240.277,129.637 239.758,128.777 238.054 C 128.746 237.993,127.921 238.577,126.943 239.352 C 122.320 243.021,117.850 242.264,117.416 237.738 L 117.250 236.017 115.091 237.996 C 109.557 243.067,104.673 242.827,103.812 237.442 C 102.561 229.620,115.963 217.075,122.129 220.297 C 123.286 220.902,123.498 220.922,124.119 220.487 C 127.082 218.412,128.883 220.941,126.781 224.226 C 122.804 230.444,120.677 237.339,122.740 237.330 C 124.018 237.325,129.000 232.772,129.000 231.609 C 129.000 227.316,134.306 215.758,139.378 209.001 C 145.666 200.625,149.788 198.118,152.455 201.048 M116.321 200.820 C 121.459 206.289,94.330 236.478,80.689 240.470 C 75.528 241.981,72.490 240.318,72.527 236.001 C 72.561 231.899,76.683 224.465,84.403 214.583 C 85.656 212.979,86.604 211.667,86.508 211.667 C 86.413 211.667,85.622 212.170,84.751 212.786 C 81.887 214.808,79.799 215.163,78.485 213.848 C 77.321 212.684,77.342 210.438,78.530 209.026 C 79.534 207.833,80.840 207.595,80.500 208.667 C 79.997 210.252,84.444 207.793,90.255 203.273 C 92.820 201.277,93.765 201.051,95.793 201.948 C 98.387 203.095,98.275 203.394,91.679 212.833 C 75.887 235.434,74.499 239.936,85.677 232.302 C 96.435 224.955,114.979 202.667,110.333 202.667 C 109.434 202.667,109.487 201.787,110.417 201.287 C 112.997 199.899,115.286 199.718,116.321 200.820 M260.960 200.703 C 261.980 201.058,263.000 202.431,263.000 203.449 C 263.000 204.861,258.686 207.018,254.782 207.557 C 253.811 207.691,253.205 208.010,252.749 208.627 C 250.144 212.150,243.889 221.581,240.563 227.000 C 232.881 239.517,230.708 242.000,227.435 242.000 C 223.365 242.000,223.327 238.091,227.355 233.573 C 229.134 231.576,230.000 231.184,230.000 232.374 C 230.000 233.782,233.774 228.756,239.168 220.167 C 240.780 217.600,242.987 214.173,244.072 212.551 C 246.438 209.016,246.525 209.167,242.641 210.058 C 236.832 211.389,229.202 211.003,227.357 209.284 C 226.352 208.347,226.387 205.705,227.417 204.766 C 229.445 202.919,233.467 202.733,231.629 204.571 C 228.845 207.355,248.908 205.769,253.306 202.858 C 256.721 200.597,258.898 199.984,260.960 200.703 M145.679 206.844 C 140.251 213.675,134.194 223.972,135.081 224.859 C 135.482 225.259,146.695 209.105,147.886 206.413 C 149.248 203.333,148.326 203.514,145.679 206.844 M161.116 205.417 C 158.540 208.165,152.216 217.333,151.019 220.054 C 149.905 222.585,149.004 225.000,149.174 225.000 C 149.657 225.000,159.029 211.736,161.342 207.777 C 163.238 204.533,163.117 203.281,161.116 205.417 M290.250 205.877 C 291.284 206.154,291.205 207.093,289.981 209.083 C 288.747 211.088,288.536 210.890,292.203 211.176 L 295.239 211.412 297.006 208.856 C 299.257 205.600,300.762 204.854,302.506 206.130 C 303.214 206.647,303.128 206.943,301.501 209.583 L 300.629 211.000 302.303 211.000 C 303.700 211.000,304.172 211.171,305.155 212.035 C 307.529 214.119,306.284 215.168,301.006 215.532 C 296.942 215.812,297.388 215.445,294.064 221.247 C 287.556 232.610,285.924 237.045,288.170 237.265 C 290.268 237.471,293.264 234.828,294.302 231.856 C 297.142 223.723,308.253 215.455,311.341 219.175 C 311.565 219.446,312.187 219.667,312.723 219.667 C 316.482 219.667,316.020 225.292,311.768 231.290 C 305.492 240.145,297.089 244.071,294.288 239.456 L 293.806 238.660 292.653 239.533 C 288.907 242.369,284.629 242.337,282.931 239.459 L 282.290 238.371 280.768 239.533 C 277.186 242.267,273.407 242.393,271.403 239.846 L 270.694 238.945 269.597 239.767 C 265.088 243.142,260.667 241.894,260.667 237.244 L 260.667 235.789 259.015 237.381 C 253.915 242.297,249.358 243.036,247.557 239.239 C 244.000 231.744,258.289 216.657,265.475 220.320 C 266.619 220.904,266.833 220.922,267.453 220.487 C 270.205 218.560,272.259 220.928,270.323 223.796 C 267.420 228.098,264.336 236.136,265.240 237.040 C 266.487 238.287,270.343 234.901,271.985 231.119 C 273.400 227.862,275.481 224.023,279.417 217.406 L 280.067 216.312 277.426 216.532 C 273.480 216.861,272.574 216.140,274.013 213.813 C 275.094 212.064,277.011 211.333,280.522 211.333 L 283.500 211.332 284.482 209.779 C 286.690 206.283,288.130 205.309,290.250 205.877 M192.982 209.649 C 194.751 211.418,190.943 215.827,187.843 215.599 C 186.568 215.505,186.495 215.440,186.401 214.322 C 186.150 211.339,191.133 207.800,192.982 209.649 M282.828 220.244 C 279.019 226.661,275.323 234.253,275.238 235.833 C 275.036 239.609,281.989 235.499,283.980 230.667 C 284.867 228.515,286.637 225.217,289.561 220.271 C 292.129 215.926,292.159 216.261,289.221 216.527 C 287.617 216.673,286.532 216.618,286.065 216.368 C 285.399 216.012,285.195 216.256,282.828 220.244 M331.091 219.000 C 331.557 219.367,332.339 219.667,332.828 219.667 C 337.179 219.667,335.866 226.553,330.191 233.500 C 321.193 244.516,310.788 243.719,314.321 232.285 C 316.775 224.345,327.293 216.012,331.091 219.000 M90.780 222.721 C 89.089 224.453,88.969 223.799,90.558 221.516 C 91.749 219.805,91.841 219.741,91.943 220.551 C 92.024 221.192,91.720 221.758,90.780 222.721 M197.026 223.703 C 190.477 228.075,185.692 239.590,191.718 236.474 C 195.911 234.305,203.514 223.333,200.823 223.333 C 200.542 223.333,200.226 223.108,200.121 222.833 C 199.823 222.059,199.242 222.222,197.026 223.703 M306.485 223.304 C 303.144 225.220,299.247 230.175,298.139 233.915 C 296.046 240.975,304.951 234.997,309.289 226.430 C 310.134 224.761,310.227 223.333,309.490 223.333 C 309.209 223.333,308.893 223.108,308.787 222.833 C 308.531 222.166,308.434 222.186,306.485 223.304 M326.489 223.374 C 319.795 227.620,314.470 239.704,320.718 236.474 C 324.911 234.305,332.514 223.333,329.823 223.333 C 329.542 223.333,329.226 223.108,329.121 222.833 C 328.841 222.104,328.325 222.210,326.489 223.374 M118.023 224.217 C 114.137 226.154,109.376 231.811,108.174 235.918 C 106.993 239.956,117.632 230.212,121.459 223.750 C 121.899 223.007,119.908 223.278,118.023 224.217 M261.038 224.367 C 257.491 226.139,253.008 231.341,251.637 235.275 C 250.686 238.003,252.457 237.255,257.120 232.958 C 259.530 230.737,260.776 229.267,263.794 225.083 L 265.057 223.333 264.082 223.333 C 263.545 223.333,262.176 223.798,261.038 224.367 " stroke="none" fill="#94938e" fill-opacity="0.6" fill-rule="evenodd"></path><path id="path2" d="M307.811 200.667 C 307.811 205.158,307.858 206.996,307.916 204.750 C 307.973 202.504,307.973 198.829,307.916 196.583 C 307.858 194.338,307.811 196.175,307.811 200.667 M287.254 216.569 C 287.669 216.649,288.269 216.646,288.587 216.562 C 288.906 216.479,288.567 216.414,287.833 216.417 C 287.100 216.421,286.839 216.489,287.254 216.569 M258.667 231.500 C 257.857 232.325,257.270 233.000,257.361 233.000 C 257.453 233.000,258.190 232.325,259.000 231.500 C 259.810 230.675,260.397 230.000,260.305 230.000 C 260.214 230.000,259.476 230.675,258.667 231.500 M303.982 233.917 L 302.833 235.167 304.083 234.018 C 304.771 233.386,305.333 232.824,305.333 232.768 C 305.333 232.513,305.051 232.753,303.982 233.917 M307.333 236.167 C 306.524 236.992,305.936 237.667,306.028 237.667 C 306.120 237.667,306.857 236.992,307.667 236.167 C 308.476 235.342,309.064 234.667,308.972 234.667 C 308.880 234.667,308.143 235.342,307.333 236.167 M247.091 236.667 C 247.091 237.492,247.156 237.829,247.235 237.417 C 247.315 237.004,247.315 236.329,247.235 235.917 C 247.156 235.504,247.091 235.842,247.091 236.667 M117.411 237.333 C 117.411 237.975,117.479 238.237,117.563 237.917 C 117.647 237.596,117.647 237.071,117.563 236.750 C 117.479 236.429,117.411 236.692,117.411 237.333 M307.815 252.000 C 307.815 257.775,307.861 260.137,307.916 257.250 C 307.972 254.362,307.972 249.637,307.916 246.750 C 307.861 243.862,307.815 246.225,307.815 252.000 " stroke="none" fill="#94938e" fill-rule="evenodd"></path><path id="path3" d="M143.982 203.583 L 142.833 204.833 144.083 203.685 C 145.247 202.615,145.487 202.333,145.232 202.333 C 145.176 202.333,144.614 202.896,143.982 203.583 M146.812 205.083 L 145.833 206.167 146.917 205.188 C 147.926 204.275,148.153 204.000,147.896 204.000 C 147.838 204.000,147.351 204.487,146.812 205.083 M226.757 207.000 C 226.757 207.825,226.822 208.162,226.902 207.750 C 226.981 207.338,226.981 206.662,226.902 206.250 C 226.822 205.838,226.757 206.175,226.757 207.000 M186.951 215.418 C 187.119 215.586,187.611 215.667,188.045 215.599 C 188.712 215.494,188.665 215.447,187.740 215.294 C 187.077 215.184,186.766 215.233,186.951 215.418 M91.174 221.992 C 90.846 222.354,90.424 222.556,90.237 222.441 C 90.035 222.316,90.000 222.396,90.150 222.640 C 90.366 222.989,92.000 221.931,92.000 221.442 C 92.000 221.195,91.736 221.370,91.174 221.992 M95.156 224.417 L 93.167 226.500 95.250 224.510 C 97.185 222.662,97.486 222.333,97.240 222.333 C 97.188 222.333,96.250 223.271,95.156 224.417 M190.479 224.083 L 189.500 225.167 190.583 224.188 C 191.179 223.649,191.667 223.162,191.667 223.104 C 191.667 222.847,191.392 223.074,190.479 224.083 M252.487 225.750 L 250.833 227.500 252.583 225.846 C 254.209 224.309,254.486 224.000,254.237 224.000 C 254.185 224.000,253.397 224.787,252.487 225.750 M141.667 233.833 C 140.857 234.658,140.270 235.333,140.361 235.333 C 140.453 235.333,141.190 234.658,142.000 233.833 C 142.810 233.008,143.397 232.333,143.305 232.333 C 143.214 232.333,142.476 233.008,141.667 233.833 M195.146 234.083 L 194.167 235.167 195.250 234.188 C 195.846 233.649,196.333 233.162,196.333 233.104 C 196.333 232.847,196.058 233.074,195.146 234.083 M324.146 234.083 L 323.167 235.167 324.250 234.188 C 324.846 233.649,325.333 233.162,325.333 233.104 C 325.333 232.847,325.058 233.074,324.146 234.083 M260.751 237.167 C 260.754 237.900,260.823 238.161,260.902 237.746 C 260.982 237.331,260.979 236.731,260.896 236.413 C 260.812 236.094,260.747 236.433,260.751 237.167 M165.812 254.083 L 164.833 255.167 165.917 254.188 C 166.926 253.275,167.153 253.000,166.896 253.000 C 166.838 253.000,166.351 253.487,165.812 254.083 " stroke="none" fill="#94938e" fill-rule="evenodd"></path><path id="path4" d="M114.083 200.230 C 114.404 200.314,114.929 200.314,115.250 200.230 C 115.571 200.146,115.308 200.077,114.667 200.077 C 114.025 200.077,113.763 200.146,114.083 200.230 M258.750 200.563 C 259.071 200.647,259.596 200.647,259.917 200.563 C 260.237 200.479,259.975 200.411,259.333 200.411 C 258.692 200.411,258.429 200.479,258.750 200.563 M158.000 203.500 C 157.190 204.325,156.603 205.000,156.695 205.000 C 156.786 205.000,157.524 204.325,158.333 203.500 C 159.143 202.675,159.730 202.000,159.639 202.000 C 159.547 202.000,158.810 202.675,158.000 203.500 M233.417 210.912 C 234.287 210.980,235.713 210.980,236.583 210.912 C 237.454 210.843,236.742 210.787,235.000 210.787 C 233.258 210.787,232.546 210.843,233.417 210.912 M288.971 211.105 C 289.120 211.254,289.901 211.326,290.705 211.265 L 292.167 211.154 290.433 210.994 C 289.479 210.906,288.821 210.955,288.971 211.105 M294.167 211.333 L 292.833 211.572 294.064 211.619 C 294.740 211.645,295.387 211.517,295.500 211.333 C 295.613 211.150,295.660 211.021,295.603 211.047 C 295.546 211.073,294.900 211.202,294.167 211.333 M301.417 211.239 C 301.921 211.315,302.746 211.315,303.250 211.239 C 303.754 211.162,303.342 211.100,302.333 211.100 C 301.325 211.100,300.912 211.162,301.417 211.239 M278.750 211.578 C 279.621 211.647,281.046 211.647,281.917 211.578 C 282.787 211.510,282.075 211.453,280.333 211.453 C 278.592 211.453,277.879 211.510,278.750 211.578 M170.583 218.569 C 170.996 218.648,171.671 218.648,172.083 218.569 C 172.496 218.489,172.158 218.424,171.333 218.424 C 170.508 218.424,170.171 218.489,170.583 218.569 M199.587 218.569 C 200.002 218.649,200.602 218.646,200.921 218.562 C 201.239 218.479,200.900 218.414,200.167 218.417 C 199.433 218.421,199.173 218.489,199.587 218.569 M308.417 218.563 C 308.737 218.647,309.262 218.647,309.583 218.563 C 309.904 218.479,309.642 218.411,309.000 218.411 C 308.358 218.411,308.096 218.479,308.417 218.563 M328.587 218.569 C 329.002 218.649,329.602 218.646,329.921 218.562 C 330.239 218.479,329.900 218.414,329.167 218.417 C 328.433 218.421,328.173 218.489,328.587 218.569 M119.254 219.902 C 119.669 219.982,120.269 219.979,120.587 219.896 C 120.906 219.812,120.567 219.747,119.833 219.751 C 119.100 219.754,118.839 219.823,119.254 219.902 M262.587 219.902 C 263.002 219.982,263.602 219.979,263.921 219.896 C 264.239 219.812,263.900 219.747,263.167 219.751 C 262.433 219.754,262.173 219.823,262.587 219.902 M97.812 221.417 L 96.833 222.500 97.917 221.521 C 98.926 220.608,99.153 220.333,98.896 220.333 C 98.838 220.333,98.351 220.821,97.812 221.417 M206.417 222.833 C 206.421 223.567,206.489 223.827,206.569 223.413 C 206.649 222.998,206.646 222.398,206.562 222.079 C 206.479 221.761,206.414 222.100,206.417 222.833 M335.417 222.833 C 335.421 223.567,335.489 223.827,335.569 223.413 C 335.649 222.998,335.646 222.398,335.562 222.079 C 335.479 221.761,335.414 222.100,335.417 222.833 M299.484 223.750 L 298.167 225.167 299.583 223.849 C 300.901 222.624,301.153 222.333,300.901 222.333 C 300.847 222.333,300.209 222.971,299.484 223.750 M100.818 226.083 L 99.500 227.500 100.917 226.182 C 102.234 224.957,102.487 224.667,102.234 224.667 C 102.180 224.667,101.542 225.304,100.818 226.083 M302.812 226.083 L 301.833 227.167 302.917 226.188 C 303.512 225.649,304.000 225.162,304.000 225.104 C 304.000 224.847,303.725 225.074,302.812 226.083 M92.479 226.750 L 91.500 227.833 92.583 226.854 C 93.593 225.942,93.820 225.667,93.562 225.667 C 93.505 225.667,93.017 226.154,92.479 226.750 M113.146 227.750 L 112.167 228.833 113.250 227.854 C 114.260 226.942,114.487 226.667,114.229 226.667 C 114.172 226.667,113.684 227.154,113.146 227.750 M115.484 231.417 L 114.167 232.833 115.583 231.516 C 116.901 230.290,117.153 230.000,116.901 230.000 C 116.847 230.000,116.209 230.637,115.484 231.417 M195.000 233.833 C 194.190 234.658,193.603 235.333,193.695 235.333 C 193.786 235.333,194.524 234.658,195.333 233.833 C 196.143 233.008,196.730 232.333,196.639 232.333 C 196.547 232.333,195.810 233.008,195.000 233.833 M324.000 233.833 C 323.190 234.658,322.603 235.333,322.695 235.333 C 322.786 235.333,323.524 234.658,324.333 233.833 C 325.143 233.008,325.730 232.333,325.639 232.333 C 325.547 232.333,324.810 233.008,324.000 233.833 M140.667 234.500 C 139.857 235.325,139.270 236.000,139.361 236.000 C 139.453 236.000,140.190 235.325,141.000 234.500 C 141.810 233.675,142.397 233.000,142.305 233.000 C 142.214 233.000,141.476 233.675,140.667 234.500 M72.411 236.000 C 72.411 236.642,72.479 236.904,72.563 236.583 C 72.647 236.262,72.647 235.737,72.563 235.417 C 72.479 235.096,72.411 235.358,72.411 236.000 M103.751 236.500 C 103.754 237.233,103.823 237.494,103.902 237.079 C 103.982 236.665,103.979 236.065,103.896 235.746 C 103.812 235.427,103.747 235.767,103.751 236.500 M258.982 237.250 L 257.833 238.500 259.083 237.351 C 260.247 236.282,260.487 236.000,260.232 236.000 C 260.176 236.000,259.614 236.563,258.982 237.250 " stroke="none" fill="#94938e" fill-rule="evenodd"></path></g></svg>